<svg id="Layer_2" data-name="Layer 2" xmlns="http://www.w3.org/2000/svg" viewBox="0 0 260 260"><defs><style>.cls-1{fill:none;}.cls-2{fill:#7cc048;}.cls-3{fill:#6d6e71;}.cls-4{fill:#fff;}</style></defs><title>icon</title><rect class="cls-1" width="260" height="260"/><path class="cls-2" d="M314.07,309.14c-12.2-6.9-32.14-6.85-44.3.12L195,352.06c-12.16,7-22.12,24.13-22.12,38.14v86.05c0,14,10,31.17,22.13,38.11l74.85,42.73c12.17,6.94,32.12,7,44.33.13l75.95-42.72c12.21-6.88,22.2-24,22.2-38V390.19c0-14-10-31.13-22.18-38Z" transform="translate(-163.33 -303.22)"/><path class="cls-3" d="M292.17,550.11c-6.28,0-12.21-1.33-16.26-3.64l-74.84-42.73c-8.36-4.77-16-17.87-16-27.49V390.2c0-9.62,7.61-22.74,16-27.52l74.79-42.81c4-2.31,9.94-3.64,16.2-3.64s12,1.3,16,3.56l76.08,43c8.36,4.73,16,17.78,16,27.38v86.33c0,9.59-7.61,22.61-16,27.32l-75.95,42.73c-4,2.25-9.83,3.54-16,3.54Z" transform="translate(-163.33 -303.22)"/><path class="cls-4" d="M292.17,537.88c-4.9,0-8.55-1.1-10.2-2l-74.84-42.72c-4.58-2.61-9.79-11.6-9.79-16.87V390.2c0-5.28,5.22-14.28,9.8-16.91l74.78-42.8c1.63-.94,5.27-2,10.13-2s8.37,1.06,10,2l76.08,43c4.56,2.58,9.76,11.49,9.76,16.73v86.33c0,5.22-5.19,14.1-9.74,16.66l-75.94,42.73C300.57,536.82,297,537.88,292.17,537.88Z" transform="translate(-163.33 -303.22)"/><path class="cls-2" d="M339.57,473.51s9.43-40.05-4.24-64c-22.91-40.19-93-39.29-101.5-39.41,11.55,27.44,9.09,63.11,29.64,87.06,27.52,32.07,71.94,19.45,71.94,19.45l19.88,20.05.76.24,3.23-2.79v-.51Zm-47-34.61c-11.6-17.67-10.87-23.06-21.74-37a102.94,102.94,0,0,0-22.42-21.4s29.1,3.45,45.86,40.09c18.5,40.42,40.43,50.62,40.43,50.62S312.35,469,292.6,438.9Z" transform="translate(-163.33 -303.22)"/></svg>